<?xml version="1.0" encoding="UTF-8" standalone="no"?>
<!-- Created with Inkscape (http://www.inkscape.org/) -->

<svg
   width="200mm"
   height="200mm"
   viewBox="0 0 200 200"
   version="1.1"
   id="svg1"
   sodipodi:docname="icon.svg"
   inkscape:version="1.4 (e7c3feb1, 2024-10-09)"
   xmlns:inkscape="http://www.inkscape.org/namespaces/inkscape"
   xmlns:sodipodi="http://sodipodi.sourceforge.net/DTD/sodipodi-0.dtd"
   xmlns="http://www.w3.org/2000/svg"
   xmlns:svg="http://www.w3.org/2000/svg">
  <sodipodi:namedview
     id="namedview1"
     pagecolor="#ffffff"
     bordercolor="#000000"
     borderopacity="0.25"
     inkscape:showpageshadow="2"
     inkscape:pageopacity="0.0"
     inkscape:pagecheckerboard="0"
     inkscape:deskcolor="#d1d1d1"
     inkscape:document-units="mm"
     inkscape:zoom="1.2190759"
     inkscape:cx="372.41323"
     inkscape:cy="382.25675"
     inkscape:window-width="1864"
     inkscape:window-height="1027"
     inkscape:window-x="59"
     inkscape:window-y="97"
     inkscape:window-maximized="1"
     inkscape:current-layer="layer3" />
  <defs
     id="defs1" />
  <g
     inkscape:groupmode="layer"
     id="layer2"
     inkscape:label="Layer 1"
     style="display:inline">
    <path
       style="display:inline;fill:#263038"
       d="m 223,823.43992 c -3.575,-0.77059 -9.65,-2.96025 -13.5,-4.86591 C 197.33739,812.5538 187.46985,800.77699 182.90034,786.82758 180.5,779.5 180.5,779.5 180.5,498.5 c 0,-237.18113 0.21731,-281.7797 1.39357,-286 2.47297,-8.87278 7.90238,-17.98705 14.47424,-24.29767 7.04108,-6.7612 15.53401,-11.43449 25.38217,-13.96672 C 228.07081,172.61036 244.68216,172.5 483,172.5 c 239.11601,0 254.91176,0.10578 261.3118,1.74994 10.42261,2.67755 17.26954,6.39048 24.68561,13.38643 7.3342,6.91871 12.64696,15.69677 15.70928,25.95583 1.64673,5.51672 1.78277,16.38356 2.05506,164.1578 0.16095,87.35263 -0.092,158.25 -0.56469,158.25 -0.47095,0 -5.56669,-2.45995 -11.32386,-5.46655 -12.6515,-6.60707 -29.85921,-12.48601 -47.3732,-16.18484 -11.74847,-2.4812 -15.0217,-2.74971 -34,-2.78905 -17.93787,-0.0372 -22.62625,0.28507 -32.15277,2.21005 -12.41322,2.50828 -26.38536,6.8675 -36.03388,11.24235 -8.4427,3.8281 -21.43807,11.73401 -31.58457,19.21489 -10.35932,7.63779 -27.27366,24.11597 -34.15386,33.27315 -10.92165,14.53613 -21.50496,35.05731 -26.91941,52.19706 -1.40384,4.44394 -3.56686,13.19259 -4.80672,19.44142 -1.85292,9.33867 -2.25197,14.65533 -2.24131,29.86152 0.014,19.9398 1.32078,30.06772 5.9999,46.5 5.2243,18.34685 14.81646,37.74532 26.55663,53.70611 11.12063,15.11855 36.21752,37.90993 47.31019,42.96409 2.82482,1.28707 2.82482,1.28707 0.42531,1.95876 -1.31973,0.36942 -86.54951,0.68076 -189.39951,0.69186 -156.65062,0.0169 -188.05493,-0.20721 -193.5,-1.3809 z m 47.58875,-50.74568 C 272.97058,769.92271 273,769.63361 273,749 c 0,-27.71431 1.45246,-25.91334 -21,-26.03873 -9.075,-0.0507 -17.75795,-0.0627 -19.29545,-0.0267 -1.56633,0.0367 -3.8747,1.14468 -5.25,2.51999 -2.44742,2.44741 -2.45445,2.51353 -2.41911,22.75 0.026,14.92069 0.38623,20.92836 1.36007,22.68538 2.59545,4.68276 4.77766,5.12557 23.94324,4.85858 17.83874,-0.24851 17.83874,-0.24851 20.25,-3.05427 z m -1.66027,-97.15725 c 1.55604,-0.80466 3.10869,-2.19147 3.45034,-3.08179 C 272.72047,671.56487 273,661.21576 273,649.45717 c 0,-20.52194 -0.0854,-21.45878 -2.12857,-23.36232 -2.83027,-2.6368 -9.86114,-3.42058 -26.12536,-2.91239 -14.53306,0.45409 -17.01248,1.2744 -18.72821,6.19616 -1.30981,3.75731 -1.33093,38.66775 -0.0255,42.10135 1.70952,4.4964 5.79798,5.43764 23.80727,5.48089 12.41072,0.0298 16.97467,-0.30992 19.12882,-1.42387 z m 228.07355,-36.38517 c 1.86029,-1.86029 3.59507,-5.41549 5.00155,-10.25 1.18436,-4.071 3.95046,-12.80182 6.14689,-19.40182 2.19644,-6.6 4.24217,-14.08146 4.54607,-16.62546 0.45806,-3.83455 0.18927,-4.98873 -1.572,-6.75 C 509,584 509,584 416.51578,584 c -92.48423,0 -92.48423,0 -95.75,2.92568 -3.26578,2.92568 -3.26578,2.92568 -2.91107,25.25 0.37819,23.80239 0.98573,27.01565 5.44765,28.81253 1.20978,0.48719 40.10339,0.91351 86.52456,0.9484 C 494.15385,642 494.15385,642 497.00203,639.15182 Z M 269.68043,575.39448 C 272.5,573.28896 272.5,573.28896 273,553.1279 c 0.275,-11.08858 0.1511,-21.49793 -0.27533,-23.13189 -0.48124,-1.84395 -1.93057,-3.56824 -3.82088,-4.54576 -2.51511,-1.30061 -6.18374,-1.52052 -21.06342,-1.26258 C 229.82251,524.5 229.82251,524.5 227.41125,527.30576 225.03673,530.06879 225,530.41633 225,550.12151 c 0,20.25265 0.45784,23.23503 3.89598,25.37849 3.3526,2.09012 6.058,2.36126 21.78445,2.1832 14.72953,-0.16677 16.43326,-0.372 19,-2.28872 z m -10e-4,-99.00149 c 2.8207,-2.10702 2.8207,-2.10702 3.09028,-23.77915 0.16802,-13.50688 -0.11899,-22.3982 -0.76176,-23.59923 -0.56725,-1.05991 -2.71356,-2.39428 -4.76959,-2.96528 -5.13476,-1.42602 -31.8657,-1.23623 -36.21216,0.25711 -1.91289,0.65723 -4.04071,2.31695 -4.73526,3.69356 -1.67162,3.31322 -1.80373,40.1448 -0.15536,43.31574 1.51701,2.91824 1.21335,2.68384 5.54014,4.27663 2.81189,1.03512 7.97554,1.34163 19.50371,1.15774 14.16246,-0.22591 15.95218,-0.45395 18.5,-2.35712 z m 463.52521,1.56699 c 2.03749,-0.56588 4.62499,-2.19906 5.75,-3.62928 1.90404,-2.42059 2.04447,-3.95687 2.03075,-22.21556 -0.0104,-13.78771 -0.38998,-20.35786 -1.27778,-22.11514 -2.08777,-4.13242 -7.30811,-5.16238 -24.38804,-4.81169 -13.59768,0.27919 -15.47455,0.53139 -18,2.4187 -2.81944,2.10702 -2.81944,2.10702 -3.0894,23.91431 -0.26127,21.10516 -0.20096,21.88073 1.87307,24.08844 1.17867,1.25463 3.32515,2.46327 4.76996,2.68586 5.68422,0.87573 28.83515,0.6354 32.33144,-0.33564 z M 270.36364,376.36364 C 273,373.72727 273,373.72727 273,352.01862 c 0,-20.79001 -0.089,-21.78926 -2.1023,-23.61363 -1.88142,-1.70484 -4.07472,-1.93749 -20.87524,-2.21434 -18.73169,-0.30867 -18.77925,-0.30392 -21.6477,2.16342 C 225.5,330.82683 225.5,330.82683 225.5,352.5 c 0,21.67317 0,21.67317 2.80576,24.08658 2.74503,2.36117 3.20211,2.41342 21.11364,2.41342 18.30787,0 18.30787,0 20.94424,-2.63636 z m 467.3306,0.22294 C 740.5,374.17317 740.5,374.17317 740.5,352.5 c 0,-21.67317 0,-21.67317 -2.80576,-24.08658 C 734.9663,326.06694 734.41711,326 717.89458,326 c -12.95889,0 -17.66565,0.34738 -19.82306,1.46301 -1.55604,0.80466 -3.10869,2.19147 -3.45034,3.08179 C 694.27953,331.43513 694,341.38639 694,352.65871 c 0,20.49514 0,20.49514 2.92308,23.41821 C 699.84615,379 699.84615,379 717.36731,379 c 17.0799,0 17.59182,-0.0608 20.32693,-2.41342 z M 270.58879,276.69424 C 272.96749,273.9263 273,273.61197 273,253.37849 273,241.22385 272.58054,232.08476 271.97036,230.94461 269.77022,226.83363 265.98188,226 249.5,226 c -24.24875,0 -24.5,0.28633 -24.5,27.92083 0,12.06853 0.40324,18.87007 1.22576,20.67532 2.14804,4.71444 5.50691,5.41696 24.61303,5.14797 17.33879,-0.24412 17.33879,-0.24412 19.75,-3.04988 z m 467.14045,0.0356 c 2.77076,-2.77022 2.77076,-2.77022 3.09503,-21 0.20603,-11.58264 -0.0873,-19.61459 -0.80447,-22.02761 -0.74236,-2.4978 -2.22259,-4.46479 -4.32427,-5.74627 -2.79888,-1.70658 -5.0946,-1.9489 -18.49519,-1.95217 -16.16574,-0.004 -19.97913,0.84588 -22.1707,4.94087 C 694.42024,232.08334 694,241.17152 694,253.2118 c 0,17.06642 0.25885,20.7128 1.607,22.63755 0.88385,1.26187 2.57135,2.70269 3.75,3.20181 1.17865,0.49912 9.67116,0.80431 18.87224,0.67819 16.72924,-0.2293 16.72924,-0.2293 19.5,-2.99951 z"
       id="path8"
       sodipodi:nodetypes="ssssssssssssssssssssssssssssssssssssssssssssssssssssssssssssssssssssssssssssssssssssssssssssssssssssssssssssssscssssssssssssssss"
       transform="matrix(0.26458333,0,0,0.26458333,-35.49291,-33.059584)" />
  </g>
  <g
     inkscape:label="图层 1"
     inkscape:groupmode="layer"
     id="layer1"
     style="display:inline">
    <g
       id="g8"
       transform="matrix(0.26458333,0,0,0.26458333,-35.49291,-33.059584)"
       style="display:inline">
      <path
         style="display:inline;fill:#f8bb29"
         d="m 414.47799,453.41825 c -3.12658,-1.32966 -5.357,-5.01859 -5.357,-8.86003 0,-1.84801 3.6,-17.57207 8,-34.94234 4.4,-17.37027 8,-32.35082 8,-33.2901 0,-2.21989 -4.21659,-6.01446 -29.21956,-26.29516 -11.39576,-9.24346 -21.85826,-18.15955 -23.25,-19.81354 -1.39174,-1.65399 -2.53044,-4.07656 -2.53044,-5.38348 0,-3.6743 2.12378,-7.48298 5.0028,-8.97178 1.67893,-0.86821 11.53202,-1.93257 27.55531,-2.9766 38.66194,-2.51911 44.46172,-3.10494 45.90788,-4.63709 0.71893,-0.76167 6.33367,-14.84398 12.4772,-31.29401 6.14353,-16.45004 11.84113,-31.20687 12.66133,-32.79296 1.63486,-3.16149 4.8878,-4.79789 9.5375,-4.79789 5.69651,0 7.58226,3.41413 20.36863,36.87714 8.06913,21.11759 12.6433,31.80352 13.98935,32.68116 1.3378,0.87226 12.49328,1.98901 33.6921,3.37286 17.43066,1.13786 32.66316,2.06884 33.85,2.06884 1.18685,0 3.6879,1.53 5.5579,3.4 3.81218,3.81218 4.34595,7.23865 1.783,11.44571 -0.88936,1.45986 -12.89061,11.87929 -26.66945,23.15429 -13.77884,11.275 -25.53869,21.29573 -26.13299,22.26829 -0.84015,1.37487 0.76381,9.0507 7.20919,34.5 4.55936,18.00244 8.27186,34.13352 8.25,35.84685 -0.0843,6.60713 -7.67029,11.22089 -13.86628,8.43339 -1.47041,-0.66151 -14.74045,-9.11806 -29.48899,-18.79231 -18.91536,-12.40748 -27.65584,-17.58955 -29.66786,-17.58955 -1.94838,0 -8.34525,3.58946 -20.18448,11.32608 -34.7898,22.73418 -38.695,25.10929 -41.99097,25.5385 -1.83764,0.23931 -4.30552,0.025 -5.48417,-0.47627 z"
         id="path10" />
      <path
         style="display:inline;fill:#0fa158"
         d="M 681.3128,848.02673 C 668.38871,846.873 657.40396,844.512 643.5,839.89949 631.61957,835.95827 613.98723,827.82642 604.68324,821.99761 588.15174,811.64087 569.2975,794.29267 558.17691,779.20611 546.44752,763.29363 536.8383,743.8701 531.60738,725.5 c -4.67912,-16.43228 -5.98592,-26.5602 -5.9999,-46.5 -0.0107,-15.20619 0.38839,-20.52285 2.24131,-29.86152 1.23986,-6.24883 3.40288,-14.99748 4.80672,-19.44142 5.41445,-17.13975 15.99776,-37.66093 26.91941,-52.19706 6.8802,-9.15718 23.79454,-25.63536 34.15386,-33.27315 10.1465,-7.48088 23.14187,-15.38679 31.58457,-19.21489 9.64852,-4.37485 23.62066,-8.73407 36.03388,-11.24235 9.52652,-1.92498 14.2149,-2.24724 32.15277,-2.21005 18.9503,0.0393 22.25396,0.30941 33.84736,2.76749 18.14015,3.84614 33.10286,8.92414 47.08745,15.98037 6.63585,3.34826 12.29019,6.36604 12.56519,6.70616 0.275,0.34013 2.75,2.12977 5.5,3.97699 11.60056,7.79225 26.69983,21.77154 36.19414,33.50943 11.67347,14.43201 22.91559,35.78812 28.68947,54.5 6.03101,19.54514 7.08422,26.99807 7.06574,50 -0.014,17.37535 -0.36259,22.17664 -2.28729,31.5 -4.90078,23.73964 -14.8214,47.27033 -27.48366,65.18836 -11.80442,16.70413 -32.05398,35.69375 -50.1784,47.05627 -8.17039,5.12217 -29.31392,14.87158 -39.4032,18.16907 -5.17177,1.69029 -13.94677,3.9491 -19.5,5.01958 -11.98937,2.31115 -31.50877,3.2339 -44.284,2.09345 z"
         transform="translate(1.496063e-6)"
         id="path1"
         sodipodi:nodetypes="ssssssssssssssssssssssssss" />
    </g>
    <g
       inkscape:groupmode="layer"
       id="layer3"
       inkscape:label="Layer 2"
       style="fill:#ffffff;fill-opacity:1">
      <path
         id="path57"
         style="display:inline;fill:#ffffff;fill-opacity:1;stroke-width:0.264583;fill-rule:evenodd"
         d="m 149.78335,164.33442 c 0.59036,0 1.43963,-0.23248 1.92065,-0.52576 0.47427,-0.28916 1.10598,-0.9138 1.40379,-1.38807 0.41856,-0.66653 0.51786,-1.18199 0.43726,-2.2703 -0.0888,-1.20038 -0.24772,-1.55151 -1.07747,-2.38125 -0.91862,-0.91866 -1.06837,-0.97326 -2.66732,-0.97326 -1.44184,0 -1.79947,0.0985 -2.40198,0.66146 -0.98453,0.91991 -1.4514,1.91674 -1.4504,3.09571 0.002,2.0042 1.80462,3.78147 3.83547,3.78147 z m 22.48604,-7.363 c -1.49491,2.15113 -4.4553,2.94502 -6.87789,1.84446 -3.59556,-1.63343 -4.45129,-6.63201 -1.62005,-9.46325 2.48606,-2.48605 6.5326,-2.17515 8.49794,0.65292 0.73979,1.06456 0.79729,1.31565 0.79729,3.48294 0,2.16728 -0.0575,2.41837 -0.79729,3.48293 z m -10.24502,6.11502 h 1e-5 c 2.63241,1.43273 5.97103,1.87227 8.7007,1.14547 2.03611,-0.54213 3.90884,-1.66744 5.4015,-3.24571 2.28098,-2.4118 3.34814,-5.60718 3.07835,-9.21751 -0.34602,-4.63058 -2.87927,-7.7923 -7.02527,-8.76816 -0.82182,-0.19343 -2.09428,-0.35383 -2.82769,-0.35583 -1.89706,-0.006 -4.30132,0.67284 -5.61184,1.58422 -0.61846,0.43004 -1.12448,0.64431 -1.12448,0.47604 0,-0.16827 0.46904,-1.26715 1.04231,-2.44194 2.0032,-4.10515 4.50861,-6.09654 8.12127,-6.45507 1.56714,-0.15552 1.84562,-0.26507 2.13618,-0.8403 0.40489,-0.80161 0.44271,-2.87539 0.0703,-3.85492 -0.2716,-0.71436 -0.2716,-0.71436 -2.71198,-0.57912 -1.56577,0.0868 -2.95975,0.3357 -3.88955,0.69457 -5.12113,1.97652 -9.0943,7.59541 -10.7567,15.2122 -0.4937,2.26202 -0.5639,7.20274 -0.12791,9.00127 0.75839,3.12841 3.04818,6.29684 5.5248,7.64479 z M 133.18081,142.8731 c -1.39609,0.67584 -3.6704,0.73266 -4.82871,0.12063 -1.2257,-0.64762 -1.75242,-1.18752 -2.28051,-2.33754 -0.5437,-1.184 -0.64281,-3.15422 -0.21541,-4.28225 0.92124,-2.43141 4.38913,-3.70228 7.0588,-2.58682 1.26998,0.53063 1.85813,1.08242 2.50525,2.35037 0.40322,0.79014 0.50332,1.39959 0.41972,2.55576 -0.14112,1.951 -1.06952,3.41033 -2.65914,4.17985 z m 2.28327,14.84905 h 2e-5 c -1.36932,1.51567 -3.6345,2.19696 -6.18594,1.86053 -1.42452,-0.18783 -3.19855,-1.13987 -3.90347,-2.09481 -1.36663,-1.85133 -1.38804,-4.24807 -0.0544,-6.08911 1.03419,-1.42765 2.56047,-2.40173 4.13079,-2.63631 4.47441,-0.66838 7.92115,2.70747 7.1207,6.97425 -0.1005,0.53573 -0.58899,1.41129 -1.1077,1.98545 z m -8.1963,6.76803 c 2.25961,0.5164 6.17078,0.32347 8.34609,-0.4117 3.38389,-1.14363 5.836,-3.37674 6.78178,-6.17611 0.63377,-1.87585 0.42916,-4.91129 -0.46016,-6.82689 -0.86852,-1.87077 -2.24872,-3.41083 -3.78914,-4.22803 -0.65741,-0.34875 -1.18822,-0.69384 -1.18022,-0.76684 0.008,-0.073 0.59289,-0.57263 1.29911,-1.11026 0.93526,-0.712 1.52408,-1.46493 2.16775,-2.77191 0.81439,-1.65369 0.88369,-1.99198 0.88369,-4.31415 0,-3.14616 -0.52967,-4.64589 -2.30311,-6.52104 -2.63368,-2.78477 -7.1566,-3.90599 -11.56459,-2.86697 -3.29034,0.77558 -5.53967,2.51946 -6.7997,5.27172 -1.68168,3.67327 -0.7336,8.39873 2.2038,10.98434 0.62337,0.5487 1.1334,1.10439 1.1334,1.23486 0,0.13046 -0.41923,0.46297 -0.93162,0.73891 -1.30525,0.70292 -3.23753,2.84583 -3.88407,4.30746 -0.76664,1.73311 -0.9085,4.11463 -0.36013,6.0459 0.51025,1.79702 1.92465,4.02406 3.14761,4.95605 1.35188,1.03025 3.57601,2.05849 5.30951,2.45466 z" />
    </g>
  </g>
</svg>
